<svg xmlns="http://www.w3.org/2000/svg" width="1200" height="675" viewBox="0 0 1200 675">
  <defs>
    <linearGradient id="skyGrad" x1="0%" y1="0%" x2="0%" y2="100%">
      <stop offset="0%" style="stop-color:#4A90E2;stop-opacity:1" />
      <stop offset="100%" style="stop-color:#87CEEB;stop-opacity:1" />
    </linearGradient>
  </defs>
  <rect width="1200" height="675" fill="url(#skyGrad)"/>
  
  <!-- Buildings silhouette -->
  <rect x="50" y="400" width="120" height="275" fill="#2C3E50" opacity="0.8"/>
  <rect x="200" y="350" width="100" height="325" fill="#34495E" opacity="0.8"/>
  <rect x="330" y="420" width="90" height="255" fill="#2C3E50" opacity="0.8"/>
  <rect x="450" y="380" width="110" height="295" fill="#34495E" opacity="0.8"/>
  
  <!-- Dove symbol -->
  <g transform="translate(700, 200)">
    <ellipse cx="0" cy="0" rx="35" ry="20" fill="white"/>
    <circle cx="10" cy="-5" r="15" fill="white"/>
    <path d="M -35 -5 Q -60 -15, -80 -10 L -70 -5 Q -55 -8, -35 -2" fill="white"/>
    <path d="M 35 -5 Q 60 -15, 80 -10 L 70 -5 Q 55 -8, 35 -2" fill="white"/>
    <circle cx="13" cy="-8" r="2" fill="#333"/>
    <path d="M 8 -2 L 12 2 L 8 2 Z" fill="#FFA500"/>
  </g>
  
  <!-- Peace symbol -->
  <g transform="translate(900, 150)">
    <circle cx="0" cy="0" r="50" fill="none" stroke="white" stroke-width="6" opacity="0.9"/>
    <line x1="0" y1="-50" x2="0" y2="50" stroke="white" stroke-width="6" opacity="0.9"/>
    <line x1="0" y1="0" x2="-35" y2="35" stroke="white" stroke-width="6" opacity="0.9"/>
    <line x1="0" y1="0" x2="35" y2="35" stroke="white" stroke-width="6" opacity="0.9"/>
  </g>
  
  <!-- Text -->
  <text x="600" y="600" font-family="Arial, sans-serif" font-size="48" font-weight="bold" fill="white" text-anchor="middle" opacity="0.9">
    Gaza Ceasefire
  </text>
</svg>
